<svg width="23" height="20" viewBox="0 0 23 20" fill="none" xmlns="http://www.w3.org/2000/svg">
<path d="M10.6577 19.6104L0.818848 10.626C0.672363 10.4795 0.599121 10.333 0.599121 10.1865C0.599121 10.097 0.619466 10.0156 0.660156 9.94238C0.708984 9.861 0.765951 9.79183 0.831055 9.73486L10.6699 0.726074C10.792 0.628418 10.9059 0.57959 11.0117 0.57959C11.1012 0.57959 11.1785 0.599935 11.2437 0.640625C11.3169 0.681315 11.3739 0.738281 11.4146 0.811523C11.4634 0.884766 11.4878 0.966146 11.4878 1.05566C11.4878 1.19401 11.443 1.31201 11.3535 1.40967L1.35596 10.5527V9.7959L11.3535 18.9634C11.443 19.0448 11.4878 19.1587 11.4878 19.3052C11.4878 19.3866 11.4634 19.4639 11.4146 19.5371C11.3739 19.6104 11.3169 19.6673 11.2437 19.708C11.1785 19.7568 11.1012 19.7812 11.0117 19.7812C10.9385 19.7812 10.8734 19.765 10.8164 19.7324C10.7676 19.6999 10.7147 19.6592 10.6577 19.6104ZM21.5586 19.6104L11.7197 10.626C11.5732 10.4795 11.5 10.333 11.5 10.1865C11.5 10.097 11.5244 10.0156 11.5732 9.94238C11.6221 9.861 11.679 9.79183 11.7441 9.73486L21.583 0.726074C21.6969 0.628418 21.8068 0.57959 21.9126 0.57959C22.0021 0.57959 22.0835 0.599935 22.1567 0.640625C22.23 0.681315 22.2869 0.738281 22.3276 0.811523C22.3683 0.884766 22.3887 0.966146 22.3887 1.05566C22.3887 1.19401 22.348 1.31201 22.2666 1.40967L12.269 10.5527V9.7959L22.2666 18.9634C22.348 19.0448 22.3887 19.1587 22.3887 19.3052C22.3887 19.3866 22.3683 19.4639 22.3276 19.5371C22.2869 19.6104 22.23 19.6673 22.1567 19.708C22.0835 19.7568 22.0021 19.7812 21.9126 19.7812C21.8475 19.7812 21.7865 19.765 21.7295 19.7324C21.6725 19.6999 21.6156 19.6592 21.5586 19.6104Z" fill="black"/>
</svg>
