<svg width="11" height="20" viewBox="0 0 11 20" fill="none" xmlns="http://www.w3.org/2000/svg">
<path d="M0.00537109 10.1865C0.00537109 10.1051 0.0175781 10.036 0.0419922 9.979C0.0745443 9.9139 0.123372 9.85286 0.188477 9.7959L10.0396 0.738281C10.1372 0.648763 10.2552 0.604004 10.3936 0.604004C10.4749 0.604004 10.5522 0.624349 10.6255 0.665039C10.6987 0.705729 10.7557 0.762695 10.7964 0.835938C10.8452 0.90918 10.8696 0.99056 10.8696 1.08008C10.8696 1.21029 10.8289 1.32015 10.7476 1.40967L1.17725 10.1865L10.7476 18.9634C10.8289 19.0529 10.8696 19.1628 10.8696 19.293C10.8696 19.3825 10.8452 19.4598 10.7964 19.5249C10.7557 19.5981 10.6987 19.6551 10.6255 19.6958C10.5522 19.7446 10.4749 19.769 10.3936 19.769C10.2552 19.769 10.1372 19.7202 10.0396 19.6226L0.188477 10.5771C0.123372 10.5202 0.0745443 10.4632 0.0419922 10.4062C0.0175781 10.3411 0.00537109 10.2679 0.00537109 10.1865Z" fill="black"/>
</svg>
