<svg width="23" height="20" viewBox="0 0 23 20" fill="none" xmlns="http://www.w3.org/2000/svg">
<path d="M1.0752 19.7812C0.985677 19.7812 0.904297 19.7568 0.831055 19.708C0.757812 19.6673 0.700846 19.6104 0.660156 19.5371C0.619466 19.4639 0.599121 19.3866 0.599121 19.3052C0.599121 19.1587 0.639811 19.0448 0.721191 18.9634L10.7188 9.7959V10.5527L0.721191 1.40967C0.639811 1.31201 0.599121 1.19401 0.599121 1.05566C0.599121 0.966146 0.619466 0.884766 0.660156 0.811523C0.700846 0.738281 0.757812 0.681315 0.831055 0.640625C0.904297 0.599935 0.985677 0.57959 1.0752 0.57959C1.18099 0.57959 1.29492 0.628418 1.41699 0.726074L11.2437 9.73486C11.3088 9.79183 11.3657 9.861 11.4146 9.94238C11.4634 10.0156 11.4878 10.097 11.4878 10.1865C11.4878 10.333 11.4146 10.4795 11.2681 10.626L1.4292 19.6104C1.37223 19.6592 1.31527 19.6999 1.2583 19.7324C1.20947 19.765 1.14844 19.7812 1.0752 19.7812ZM11.9883 19.7812C11.8988 19.7812 11.8174 19.7568 11.7441 19.708C11.6709 19.6673 11.6099 19.6104 11.561 19.5371C11.5203 19.4639 11.5 19.3866 11.5 19.3052C11.5 19.1587 11.5448 19.0448 11.6343 18.9634L21.6318 9.7959V10.5527L11.6343 1.40967C11.5448 1.31201 11.5 1.19401 11.5 1.05566C11.5 0.966146 11.5203 0.884766 11.561 0.811523C11.6099 0.738281 11.6709 0.681315 11.7441 0.640625C11.8174 0.599935 11.8988 0.57959 11.9883 0.57959C12.0859 0.57959 12.1958 0.628418 12.3179 0.726074L22.1567 9.73486C22.2218 9.79183 22.2747 9.861 22.3154 9.94238C22.3643 10.0156 22.3887 10.097 22.3887 10.1865C22.3887 10.333 22.3154 10.4795 22.1689 10.626L12.3301 19.6104C12.2731 19.6592 12.2161 19.6999 12.1592 19.7324C12.1104 19.765 12.0534 19.7812 11.9883 19.7812Z" fill="black"/>
</svg>
