<svg width="19" height="21" viewBox="0 0 19 21" fill="none" xmlns="http://www.w3.org/2000/svg">
<path d="M1.49365 20.355C1.20068 20.355 0.964681 20.2533 0.785645 20.0498C0.614746 19.8545 0.529297 19.5778 0.529297 19.2197V1.17773C0.529297 0.819661 0.614746 0.542969 0.785645 0.347656C0.964681 0.144206 1.20068 0.0424805 1.49365 0.0424805C1.64014 0.0424805 1.77848 0.0668945 1.90869 0.115723C2.0389 0.156413 2.19352 0.229655 2.37256 0.335449L17.4116 9.17334C17.6883 9.3361 17.8958 9.49479 18.0342 9.64941C18.1725 9.7959 18.2417 9.979 18.2417 10.1987C18.2417 10.4266 18.1725 10.6138 18.0342 10.7603C17.8958 10.9067 17.6883 11.0654 17.4116 11.2363L2.37256 20.062C2.19352 20.1678 2.0389 20.241 1.90869 20.2817C1.77848 20.3306 1.64014 20.355 1.49365 20.355ZM1.66455 19.354C1.75407 19.354 1.85986 19.3174 1.98193 19.2441L16.9111 10.5405C16.9762 10.508 17.0413 10.4632 17.1064 10.4062C17.1715 10.3493 17.2041 10.2801 17.2041 10.1987C17.2041 10.1174 17.1715 10.0482 17.1064 9.99121C17.0413 9.93424 16.9762 9.88949 16.9111 9.85693L1.98193 1.15332C1.85986 1.08008 1.75407 1.04346 1.66455 1.04346C1.50993 1.04346 1.43262 1.14925 1.43262 1.36084V19.0366C1.43262 19.2482 1.50993 19.354 1.66455 19.354Z" fill="black"/>
</svg>
