<svg width="10" height="20" viewBox="0 0 10 20" fill="none" xmlns="http://www.w3.org/2000/svg">
<path d="M1.0083 19.6592C0.878092 19.6592 0.768229 19.6144 0.678711 19.5249C0.589193 19.4354 0.544434 19.3296 0.544434 19.2075V1.18994C0.544434 1.06787 0.589193 0.962077 0.678711 0.872559C0.768229 0.78304 0.878092 0.738281 1.0083 0.738281C1.13851 0.738281 1.24837 0.78304 1.33789 0.872559C1.42741 0.962077 1.47217 1.06787 1.47217 1.18994V19.2075C1.47217 19.3296 1.42741 19.4354 1.33789 19.5249C1.24837 19.6144 1.13851 19.6592 1.0083 19.6592ZM8.97949 19.6592C8.84928 19.6592 8.73942 19.6144 8.6499 19.5249C8.56038 19.4354 8.51562 19.3296 8.51562 19.2075V1.18994C8.51562 1.06787 8.56038 0.962077 8.6499 0.872559C8.73942 0.78304 8.84928 0.738281 8.97949 0.738281C9.1097 0.738281 9.21956 0.78304 9.30908 0.872559C9.3986 0.962077 9.44336 1.06787 9.44336 1.18994V19.2075C9.44336 19.3296 9.3986 19.4354 9.30908 19.5249C9.21956 19.6144 9.1097 19.6592 8.97949 19.6592Z" fill="black"/>
</svg>
